# xmcd CD database file
#
# Track frame offsets:
#	150
#	15978
#	38090
#	55383
#	69085
#	80775
#	93339
#	111364
#	121669
#	142410
#	158463
#	175965
#	188033
#	201408
#	219210
#	235302
#
# Disc length: 3450 seconds
#
# Revision: 0
# Processed by: cddbd v1.5.2PL0 Copyright (c) Steve Scherf et al.
# Submitted via: CDex 1.70beta2
#
DISCID=d70d7810
DTITLE=Black Hills Jazz Band - At the Four Aces
DYEAR=1900
DGENRE=Jazz
TTITLE0=Washington and Lee Swing
TTITLE1=Down by the Riverside
TTITLE2=Some of these Days
TTITLE3=Joshua Fit the Battle
TTITLE4=Callahan's Corner
TTITLE5=At the Jazz Band Ball
TTITLE6=St James Infirmary Blues
TTITLE7=Darktown Strutters Ball
TTITLE8=Battle Hymn of the Repulbic 
TTITLE9=Bill Bailey
TTITLE10=Amazing Grace
TTITLE11=Bogalusa Strut
TTITLE12=Childs Play
TTITLE13=At a Georgia Camp Meeting
TTITLE14=Just a Closer Walk with Thee
TTITLE15=Saints Go Marching In
EXTD=
EXTT0=
EXTT1=
EXTT2=
EXTT3=
EXTT4=
EXTT5=
EXTT6=
EXTT7=
EXTT8=
EXTT9=
EXTT10=
EXTT11=
EXTT12=
EXTT13=
EXTT14=
EXTT15=
PLAYORDER=
